<?xml version="1.0" standalone="no"?><!DOCTYPE svg PUBLIC "-//W3C//DTD SVG 1.1//EN" "http://www.w3.org/Graphics/SVG/1.1/DTD/svg11.dtd"><svg height="1024" node-id="1" sillyvg="true" template-height="1024" template-width="1024" version="1.1" viewBox="0 0 1024 1024" width="1024" xmlns="http://www.w3.org/2000/svg" xmlns:xlink="http://www.w3.org/1999/xlink"><defs node-id="47"></defs><path d="M 312.29 179.06 C 336.18 170.44 364.53 175.68 382.93 193.51 C 396.91 205.22 397.27 225.60 409.88 238.39 C 420.16 249.20 427.60 262.18 433.63 275.76 C 453.79 262.39 473.59 245.83 498.57 242.95 C 520.52 239.03 542.62 244.39 563.00 252.51 C 595.80 232.93 627.89 206.48 667.67 204.50 C 693.90 202.81 716.29 221.39 728.90 242.88 C 743.42 264.66 750.32 290.13 757.18 315.07 C 760.13 328.62 773.46 334.91 782.62 343.75 C 792.40 351.83 798.40 364.05 809.39 370.62 C 827.15 376.70 846.15 378.10 863.91 384.35 C 887.80 392.36 913.17 399.62 932.76 416.26 C 948.39 429.45 945.84 452.34 940.95 470.02 C 931.75 505.12 906.52 532.15 888.74 562.84 C 909.61 580.80 933.15 597.69 944.65 623.71 C 953.17 639.20 952.41 657.27 951.40 674.34 C 949.79 700.28 955.21 727.99 943.00 752.17 C 925.46 788.32 888.23 809.77 851.33 821.70 C 773.61 846.64 690.96 849.05 610.03 847.83 C 520.85 845.02 431.98 834.49 344.37 817.68 C 275.63 803.52 205.71 793.67 138.83 771.72 C 116.77 764.14 92.44 754.87 80.12 733.63 C 68.40 710.49 71.03 683.00 77.60 658.71 C 84.14 636.68 81.66 612.42 92.66 591.65 C 100.78 573.47 114.97 559.03 130.64 547.17 C 135.35 542.42 143.61 538.47 142.53 530.60 C 141.67 513.71 138.15 496.54 142.50 479.83 C 150.19 448.31 170.92 419.78 199.24 403.76 C 224.64 388.27 256.01 379.68 285.26 388.38 C 307.58 392.90 320.59 413.03 336.58 427.19 C 349.69 400.99 358.75 371.88 379.52 350.29 C 387.39 341.77 398.24 337.10 408.80 332.82 C 396.59 347.02 381.35 358.55 371.18 374.43 C 362.02 387.91 356.34 403.25 350.41 418.27 C 346.96 426.18 343.55 436.28 333.74 437.78 C 321.88 426.43 315.41 409.72 300.54 401.56 C 279.98 389.17 254.40 389.27 232.15 396.75 C 189.57 408.25 153.89 445.01 148.07 489.35 C 144.87 505.45 150.76 521.12 152.74 536.89 C 147.71 543.86 140.05 548.25 133.51 553.60 C 111.02 570.49 93.59 595.86 91.15 624.43 C 89.03 654.43 73.79 683.39 81.12 713.83 C 83.49 730.97 95.32 745.63 110.80 752.92 C 147.60 770.71 188.13 778.47 227.73 787.39 C 276.53 798.35 325.90 806.29 374.99 815.77 C 457.24 831.08 540.83 838.56 624.41 840.21 C 687.87 840.60 751.94 838.38 814.07 824.33 C 850.79 815.24 888.45 802.41 916.41 775.82 C 933.08 759.68 944.00 737.33 944.40 713.94 C 944.76 693.49 944.97 673.01 944.43 652.56 C 943.57 624.78 924.74 601.79 904.08 585.08 C 895.89 577.86 885.58 572.47 879.79 562.91 C 888.23 543.83 903.90 529.20 913.96 511.06 C 927.15 488.17 940.23 461.90 935.70 434.77 C 929.05 415.61 908.18 407.42 890.78 400.59 C 866.06 391.11 840.37 384.71 814.32 380.18 C 799.19 378.57 792.51 363.58 783.05 353.84 C 774.32 343.42 761.57 337.24 753.27 326.46 C 746.91 312.45 745.36 296.78 739.68 282.48 C 730.99 259.77 720.17 236.20 700.44 220.92 C 685.28 209.07 664.29 209.25 646.69 214.82 C 615.86 224.30 590.59 245.07 563.43 261.64 C 540.50 250.50 514.20 245.18 489.15 251.90 C 465.04 256.75 449.91 280.65 424.90 282.87 C 422.17 273.10 420.01 263.11 415.70 253.84 C 410.10 242.27 395.08 237.85 391.92 224.77 C 388.39 215.35 386.60 204.61 378.98 197.42 C 362.52 181.15 336.32 176.51 315.05 185.46 C 296.51 193.51 273.80 189.59 257.63 203.10 C 241.85 214.56 237.94 235.62 238.91 253.91 C 239.59 269.47 247.25 286.43 263.27 291.18 C 280.09 295.95 286.13 314.96 302.01 321.22 C 324.57 333.50 353.03 329.59 373.66 345.97 C 341.00 339.18 303.52 337.57 278.80 312.12 C 269.31 301.78 255.69 297.07 245.12 288.19 C 223.38 263.83 225.25 221.21 251.23 200.48 C 267.40 184.02 291.98 186.39 312.29 179.06 Z" fill="#efdcd7" fill-rule="nonzero" node-id="51" stroke="none" target-height="678.612" target-width="886.81177" target-x="68.4022" target-y="170.437"></path><path d="M 318.72 200.26 C 338.01 187.54 367.48 199.72 373.80 221.57 C 374.95 228.90 374.24 236.34 374.06 243.74 C 383.54 246.83 394.07 250.43 399.17 259.81 C 411.32 281.47 401.29 314.39 376.21 321.43 C 363.10 326.93 349.84 318.81 341.14 309.43 C 331.12 311.94 320.33 313.45 310.96 308.03 C 299.60 303.50 295.58 291.18 292.92 280.36 C 281.71 278.53 268.41 278.81 260.43 269.33 C 250.16 259.16 250.44 243.38 253.17 230.23 C 259.54 212.91 279.76 202.09 297.70 206.91 C 305.85 210.86 312.25 204.11 318.72 200.26 Z M 310.27 228.18 C 300.21 224.52 289.07 219.38 278.40 224.09 C 264.71 232.03 263.24 254.59 277.64 262.64 C 288.39 265.88 299.53 262.03 310.42 261.64 C 311.10 272.70 305.64 287.90 318.04 294.30 C 328.89 298.54 339.70 292.25 350.30 290.31 C 356.05 296.24 358.82 308.71 369.28 306.77 C 386.31 304.00 395.40 280.90 384.87 267.03 C 376.54 254.63 359.14 259.27 346.67 255.38 C 350.88 247.48 356.77 240.47 360.08 232.10 C 359.93 218.80 346.24 209.78 333.74 211.91 C 322.92 211.22 316.63 221.14 310.27 228.18 Z" fill="#2a1c2f" fill-rule="nonzero" node-id="53" stroke="none" target-height="139.38696" target-width="161.163" target-x="250.156" target-y="187.54202"></path><path d="M 310.27 228.18 C 316.63 221.14 322.92 211.22 333.74 211.91 C 346.24 209.78 359.93 218.80 360.08 232.10 C 356.77 240.47 350.88 247.48 346.67 255.38 C 359.14 259.27 376.54 254.63 384.87 267.03 C 395.40 280.90 386.31 304.00 369.28 306.77 C 358.82 308.71 356.05 296.24 350.30 290.31 C 339.70 292.25 328.89 298.54 318.04 294.30 C 305.64 287.90 311.10 272.70 310.42 261.64 C 299.53 262.03 288.39 265.88 277.64 262.64 C 263.24 254.59 264.71 232.03 278.40 224.09 C 289.07 219.38 300.21 224.52 310.27 228.18 Z" fill="#fbefe2" fill-rule="nonzero" node-id="55" stroke="none" target-height="98.92601" target-width="132.16501" target-x="263.236" target-y="209.78499"></path><path d="M 647.84 226.92 C 662.39 221.35 681.25 219.67 693.15 231.74 C 719.45 256.97 729.91 293.80 737.42 328.40 C 739.14 338.11 749.35 342.52 755.85 348.81 C 772.24 360.92 784.82 377.06 797.75 392.54 C 836.49 393.55 874.72 404.22 908.90 422.40 C 918.45 426.75 924.85 437.21 923.56 447.74 C 919.46 475.34 906.34 500.60 890.64 523.31 C 879.93 539.41 866.06 553.46 857.87 571.14 C 881.69 583.93 904.26 600.71 918.92 623.82 C 932.40 645.12 932.79 671.61 929.63 695.83 C 927.47 710.81 930.53 726.73 923.99 740.85 C 917.16 757.60 903.18 770.14 888.13 779.48 C 859.59 797.12 826.82 806.07 794.27 812.68 C 701.66 830.54 606.55 824.22 513.26 815.92 C 468.24 812.00 423.54 805.03 379.27 795.97 C 327.27 785.66 274.48 779.34 222.77 767.41 C 192.88 760.72 162.44 755.12 133.91 743.62 C 119.93 737.76 105.38 729.46 99.13 714.94 C 90.72 695.43 93.92 673.12 100.13 653.42 C 104.44 639.66 103.58 625.07 105.63 610.99 C 114.72 579.90 143.40 553.82 176.46 552.52 C 166.61 532.36 158.38 510.55 162.26 487.70 C 168.26 450.11 199.31 419.13 235.06 408.14 C 255.51 403.32 279.05 403.47 296.69 416.37 C 310.52 424.92 316.85 440.41 324.14 454.14 C 336.29 455.11 348.08 451.19 359.93 449.25 C 367.69 422.44 375.82 395.27 389.87 370.98 C 396.26 359.77 409.20 355.82 420.38 351.18 C 420.12 330.42 431.87 312.34 445.35 297.61 C 459.97 281.47 477.11 264.69 499.75 261.85 C 522.10 256.68 544.60 265.41 562.46 278.53 C 587.97 257.04 616.50 238.64 647.84 226.92 Z M 648.63 241.51 C 622.22 250.50 599.47 267.31 577.76 284.42 C 587.39 285.50 596.95 287.15 606.66 287.65 C 631.24 289.85 655.27 295.92 678.45 304.25 C 692.57 311.48 706.84 318.45 721.11 325.35 C 717.30 295.52 705.87 265.95 685.24 243.67 C 674.68 235.44 659.15 230.99 648.63 241.51 Z M 479.77 285.17 C 459.44 301.13 442.44 322.26 433.81 346.84 C 453.58 330.59 472.23 312.27 495.62 301.09 C 510.68 293.26 527.35 289.70 543.41 284.63 C 525.66 268.82 497.78 270.94 479.77 285.17 Z M 553.98 295.34 C 514.05 298.94 476.07 318.49 448.76 347.70 C 417.68 379.72 392.85 420.46 389.11 465.78 C 385.27 514.61 407.15 561.68 437.69 598.62 C 481.64 653.28 547.44 686.48 614.99 701.54 C 652.72 708.87 693.00 713.76 730.20 701.29 C 741.59 698.34 746.69 686.41 756.54 681.02 C 765.55 675.63 775.62 671.68 783.34 664.35 C 799.05 649.62 807.99 629.35 814.21 609.12 C 827.94 564.88 832.07 516.62 819.92 471.53 C 805.19 413.49 765.20 363.29 713.70 333.32 C 665.73 305.62 609.64 289.45 553.98 295.34 Z M 390.37 400.31 C 383.51 420.82 373.23 441.20 374.52 463.41 C 383.22 450.97 383.87 435.23 389.54 421.51 C 395.94 402.53 407.44 386.04 416.03 368.11 C 399.43 369.91 395.44 387.37 390.37 400.31 Z M 806.91 409.11 C 814.86 426.29 823.73 443.07 830.02 460.96 C 851.69 449.64 873.75 439.08 896.50 429.99 C 869.01 415.87 837.85 408.32 806.91 409.11 Z M 238.55 422.12 C 234.02 424.20 229.53 426.25 225.00 428.30 C 192.84 445.83 167.29 484.97 181.63 521.94 C 185.19 535.99 193.34 548.53 203.80 558.45 C 206.50 553.28 209.44 548.17 211.56 542.71 C 227.62 517.38 248.83 495.68 274.12 479.47 C 286.27 472.57 298.77 466.35 311.57 460.71 C 307.94 453.38 304.16 446.12 300.21 439.01 C 292.23 432.04 284.11 424.42 273.66 421.47 C 262.12 418.60 250.16 420.61 238.55 422.12 Z M 831.49 465.45 C 837.35 487.62 839.15 510.55 839.26 533.44 C 857.04 526.72 877.31 520.00 887.66 502.75 C 899.48 482.74 910.62 461.03 911.34 437.32 C 882.45 438.61 858.12 456.18 831.49 465.45 Z M 296.91 479.90 C 290.04 483.42 282.39 486.48 277.29 492.48 C 240.74 513.89 213.90 552.95 207.61 594.89 C 204.52 619.61 201.32 647.03 211.24 670.49 C 214.26 701.00 232.80 728.92 257.27 746.71 C 293.92 771.97 340.24 771.47 382.64 777.86 C 355.19 752.75 347.97 712.89 355.84 677.64 C 356.95 688.82 358.75 699.92 360.62 710.99 C 361.80 719.33 363.17 728.27 368.09 735.35 C 374.41 757.02 392.56 772.80 412.04 782.79 C 439.78 797.45 471.98 797.63 502.45 801.11 C 541.87 804.24 581.11 810.24 620.78 809.99 C 659.26 813.62 697.82 810.02 736.23 807.87 C 777.70 801.98 819.96 796.44 858.59 779.37 C 876.81 771.36 894.99 760.87 906.70 744.30 C 914.47 733.59 913.75 719.83 915.08 707.33 C 870.41 747.28 807.96 755.08 750.53 759.14 C 718.01 759.14 685.32 760.04 653.01 755.66 C 645.61 753.97 639.43 758.82 633.28 762.09 C 605.43 778.58 574.32 790.37 541.90 793.13 C 515.10 794.90 488.33 788.93 464.07 777.68 C 457.60 762.16 459.25 745.27 468.74 731.51 C 484.30 719.65 501.05 709.52 519.37 702.58 C 466.98 679.48 417.61 643.94 389.76 592.73 C 382.11 580.08 379.41 561.25 362.13 558.38 C 357.20 551.59 351.06 545.73 346.82 538.47 C 339.56 526.72 341.07 512.06 342.72 498.98 C 346.10 486.01 356.77 476.34 359.68 463.12 C 337.87 464.34 316.74 471.13 296.91 479.90 Z M 370.53 501.71 C 375.67 572.97 422.03 637.00 483.47 671.57 C 507.33 684.22 532.06 699.46 560.12 698.31 C 539.89 687.56 518.37 679.15 499.46 666.04 C 459.54 639.84 424.76 604.88 402.05 562.62 C 386.85 534.59 380.42 502.93 379.77 471.28 C 366.87 476.02 370.50 491.04 370.53 501.71 Z M 838.43 542.75 C 836.56 555.68 834.40 568.55 833.90 581.63 C 847.81 566.18 856.72 547.17 868.29 530.10 C 858.26 534.12 848.35 538.47 838.43 542.75 Z M 117.42 616.81 C 130.21 609.30 142.53 600.92 155.94 594.49 C 155.54 592.66 154.75 588.96 154.36 587.09 C 165.46 594.10 178.72 595.68 191.37 598.19 C 191.58 591.29 191.84 584.39 192.12 577.50 C 183.39 571.24 173.11 565.32 161.94 568.26 C 138.54 573.15 124.39 595.53 117.42 616.81 Z M 825.92 617.13 C 820.64 633.34 813.28 648.79 804.51 663.41 C 824.02 674.23 843.35 685.80 859.95 700.89 C 864.41 704.02 869.08 711.13 875.08 706.57 C 890.28 698.38 903.00 684.83 909.47 668.77 C 914.68 650.23 902.10 633.26 890.93 619.83 C 878.78 606.67 865.45 592.34 847.52 587.70 C 835.30 592.70 829.70 605.42 825.92 617.13 Z M 120.33 637.15 C 112.56 655.72 106.74 675.56 108.68 695.90 C 111.74 707.43 117.13 719.18 128.66 724.36 C 161.97 741.75 199.78 748.07 236.57 753.39 C 227.19 742.36 217.78 731.33 209.19 719.65 C 201.93 704.23 194.28 688.71 191.26 671.75 C 186.41 650.98 188.38 629.53 187.92 608.43 C 162.15 598.41 131.57 612.46 120.33 637.15 Z M 752.69 709.09 C 729.19 719.22 704.07 725.72 678.42 726.62 C 671.09 725.76 666.88 731.76 662.78 736.72 C 678.70 738.12 694.62 739.99 710.65 739.88 C 760.35 738.30 812.02 736.50 857.65 714.40 C 839.83 697.26 819.60 682.50 796.93 672.54 C 782.37 684.90 769.98 700.39 752.69 709.09 Z M 840.37 732.91 C 781.19 748.47 718.77 751.49 658.11 744.44 C 656.86 745.45 654.38 747.43 653.12 748.43 C 682.91 753.14 713.20 751.63 743.21 751.52 C 783.88 749.37 825.39 745.27 863.19 728.99 C 882.16 721.12 900.16 709.80 912.81 693.31 C 891.93 711.71 867.57 726.19 840.37 732.91 Z M 523.47 712.61 C 503.88 718.11 482.94 727.23 472.69 745.95 C 471.15 753.39 468.85 761.48 472.48 768.74 C 486.85 776.97 504.06 776.39 519.95 779.19 C 562.96 782.21 605.54 765.00 638.71 738.44 C 645.82 736.00 650.03 729.35 654.91 724.11 C 646.40 721.27 637.49 718.86 628.50 720.66 C 609.21 724.47 590.49 716.85 572.09 712.21 C 556.17 707.94 539.50 710.34 523.47 712.61 Z" fill="#271a2b" fill-rule="nonzero" node-id="57" stroke="none" target-height="610.875" target-width="842.07477" target-x="90.7172" target-y="219.667"></path><path d="M 648.63 241.51 C 659.15 230.99 674.68 235.44 685.24 243.67 C 682.04 263.76 680.46 284.06 678.45 304.25 C 655.27 295.92 631.24 289.85 606.66 287.65 C 628.14 281.51 637.34 258.69 648.63 241.51 Z" fill="#a28ba5" fill-rule="nonzero" node-id="59" stroke="none" target-height="73.26901" target-width="78.586975" target-x="606.656" target-y="230.986"></path><path d="M 577.76 284.42 C 599.47 267.31 622.22 250.50 648.63 241.51 C 637.34 258.69 628.14 281.51 606.66 287.65 C 596.95 287.15 587.39 285.50 577.76 284.42 Z" fill="#f7f2ed" fill-rule="nonzero" node-id="61" stroke="none" target-height="46.139984" target-width="70.862" target-x="577.765" target-y="241.514"></path><path d="M 678.45 304.25 C 680.46 284.06 682.04 263.76 685.24 243.67 C 705.87 265.95 717.30 295.52 721.11 325.35 C 706.84 318.45 692.57 311.48 678.45 304.25 Z" fill="#f4deca" fill-rule="nonzero" node-id="63" stroke="none" target-height="81.67699" target-width="42.652954" target-x="678.452" target-y="243.671"></path><path d="M 479.77 285.17 C 497.78 270.94 525.66 268.82 543.41 284.63 C 527.35 289.70 510.68 293.26 495.62 301.09 C 472.23 312.27 453.58 330.60 433.81 346.84 C 442.44 322.26 459.44 301.13 479.77 285.17 Z" fill="#f0cfc7" fill-rule="nonzero" node-id="65" stroke="none" target-height="78.013" target-width="109.59799" target-x="433.814" target-y="268.824"></path><path d="M 553.98 295.34 C 609.64 289.45 665.73 305.62 713.70 333.32 C 765.20 363.29 805.19 413.49 819.92 471.53 C 832.07 516.62 827.94 564.88 814.21 609.12 C 807.99 629.35 799.05 649.62 783.34 664.35 C 775.62 671.68 765.55 675.63 756.54 681.02 C 746.69 686.41 741.59 698.34 730.20 701.29 C 693.00 713.76 652.72 708.87 614.99 701.54 C 547.44 686.48 481.64 653.28 437.69 598.62 C 407.15 561.68 385.27 514.61 389.11 465.78 C 392.85 420.46 417.68 379.72 448.76 347.70 C 476.07 318.49 514.05 298.94 553.98 295.34 Z M 553.98 316.90 C 491.52 325.20 431.15 366.06 408.70 426.25 C 395.36 458.20 396.37 494.99 408.52 527.15 C 430.44 588.96 480.13 638.84 539.42 665.71 C 567.38 679.30 598.10 685.37 628.50 690.58 C 653.23 695.18 678.49 694.93 703.50 694.07 C 718.09 692.95 734.15 690.54 745.04 679.84 C 758.62 666.90 771.99 653.14 780.32 636.10 C 805.69 585.94 811.95 525.79 794.59 472.07 C 764.30 372.42 656.60 305.26 553.98 316.90 Z" fill="#a1b3bb" fill-rule="nonzero" node-id="67" stroke="none" target-height="424.30798" target-width="446.80194" target-x="385.26703" target-y="289.45"></path><path d="M 553.98 316.90 C 656.60 305.26 764.30 372.42 794.59 472.07 C 811.95 525.79 805.69 585.94 780.32 636.10 C 771.99 653.14 758.62 666.90 745.04 679.84 C 734.15 690.54 718.09 692.95 703.50 694.07 C 678.49 694.93 653.23 695.18 628.50 690.58 C 598.10 685.37 567.38 679.30 539.42 665.71 C 480.13 638.84 430.44 588.96 408.52 527.15 C 396.37 494.99 395.37 458.20 408.70 426.25 C 431.15 366.06 491.52 325.20 553.98 316.90 Z M 476.25 382.77 C 471.90 393.73 468.02 410.47 480.64 417.48 C 503.92 418.92 522.64 402.07 538.45 387.08 C 547.90 377.42 561.13 366.89 558.68 351.72 C 559.37 343.28 549.41 341.59 543.99 337.71 C 516.10 341.37 489.19 357.26 476.25 382.77 Z M 412.54 444.76 C 408.95 462.54 408.19 481.05 412.04 498.87 C 415.02 519.14 423.75 538.11 433.56 555.97 C 459.22 599.81 498.85 635.71 545.50 656.05 C 598.97 680.05 658.90 688.50 717.08 682.89 C 724.12 681.78 732.57 680.63 736.59 673.87 C 736.09 667.44 734.83 661.15 733.93 654.79 C 728.08 639.84 719.49 625.83 706.70 615.84 C 695.59 604.12 682.58 594.31 668.00 587.31 C 658.54 577.64 646.65 570.60 637.92 560.14 C 625.20 544.72 608.20 533.55 590.52 524.64 C 571.94 515.83 550.17 521.19 531.59 512.42 C 521.24 507.89 512.40 500.63 504.10 493.09 C 481.21 466.42 449.52 442.49 412.54 444.76 Z M 493.89 468.00 C 506.26 462.79 519.59 453.02 533.42 459.49 C 551.86 465.38 558.83 485.43 560.09 503.01 C 571.04 490.50 562.71 472.50 551.42 463.41 C 535.29 448.39 507.80 451.51 493.89 468.00 Z M 662.21 576.67 C 673.24 576.24 684.24 574.76 695.09 572.54 C 684.09 566.11 671.37 568.26 662.21 576.67 Z" fill="#301b30" fill-rule="nonzero" node-id="69" stroke="none" target-height="389.91803" target-width="416.58096" target-x="395.36502" target-y="305.261"></path><path d="M 476.25 382.77 C 489.19 357.26 516.10 341.38 543.99 337.71 C 535.65 353.02 524.33 366.60 510.07 376.73 C 497.38 385.72 487.00 397.47 479.70 411.23 C 478.59 401.74 477.22 392.29 476.25 382.77 Z" fill="#f6f8f1" fill-rule="nonzero" node-id="71" stroke="none" target-height="73.520996" target-width="67.735016" target-x="476.25198" target-y="337.709"></path><path d="M 543.99 337.71 C 549.41 341.59 559.37 343.28 558.68 351.72 C 561.13 366.89 547.90 377.42 538.45 387.08 C 522.64 402.07 503.92 418.92 480.64 417.48 C 468.02 410.48 471.90 393.73 476.25 382.77 C 477.22 392.29 478.59 401.74 479.70 411.23 C 487.00 397.47 497.38 385.72 510.07 376.73 C 524.33 366.60 535.65 353.02 543.99 337.71 Z" fill="#dadbda" fill-rule="nonzero" node-id="73" stroke="none" target-height="81.21097" target-width="93.10498" target-x="468.023" target-y="337.709"></path><path d="M 390.37 400.31 C 395.44 387.37 399.43 369.91 416.03 368.11 C 407.44 386.04 395.94 402.53 389.54 421.51 C 383.87 435.23 383.22 450.97 374.52 463.41 C 373.23 441.20 383.51 420.82 390.37 400.31 Z" fill="#b6c7c8" fill-rule="nonzero" node-id="75" stroke="none" target-height="95.29602" target-width="42.796997" target-x="373.229" target-y="368.11"></path><path d="M 806.92 409.11 C 837.86 408.32 869.01 415.87 896.50 429.99 C 873.75 439.08 851.69 449.64 830.02 460.96 C 823.73 443.07 814.86 426.29 806.92 409.11 Z" fill="#cea8a7" fill-rule="nonzero" node-id="77" stroke="none" target-height="52.643005" target-width="89.58307" target-x="806.916" target-y="408.32"></path><path d="M 238.55 422.12 C 250.16 420.61 262.12 418.60 273.66 421.47 C 284.11 424.42 292.23 432.04 300.21 439.01 C 294.46 444.00 289.11 452.99 280.20 450.58 C 264.24 444.69 252.17 431.86 238.55 422.12 Z" fill="#eedccd" fill-rule="nonzero" node-id="79" stroke="none" target-height="34.388" target-width="61.66301" target-x="238.549" target-y="418.597"></path><path d="M 225.00 428.30 C 229.53 426.25 234.02 424.20 238.55 422.12 C 252.17 431.86 264.24 444.69 280.20 450.58 C 289.11 452.99 294.46 444.00 300.21 439.01 C 304.17 446.12 307.94 453.38 311.57 460.71 C 298.77 466.35 286.27 472.57 274.12 479.47 C 269.20 468.90 264.60 457.84 256.59 449.18 C 247.89 439.76 236.07 434.30 225.00 428.30 Z" fill="#bf9f9d" fill-rule="nonzero" node-id="81" stroke="none" target-height="57.350952" target-width="86.56499" target-x="225.002" target-y="422.11804"></path><path d="M 181.63 521.94 C 167.29 484.97 192.84 445.83 225.00 428.30 C 236.07 434.30 247.89 439.76 256.59 449.18 C 264.60 457.84 269.20 468.90 274.12 479.47 C 248.83 495.68 227.62 517.38 211.56 542.71 C 211.78 524.78 201.61 509.51 189.86 496.86 C 186.98 505.16 184.11 513.50 181.63 521.94 Z" fill="#f0d8c7" fill-rule="nonzero" node-id="83" stroke="none" target-height="114.412964" target-width="106.831985" target-x="167.292" target-y="428.299"></path><path d="M 831.49 465.45 C 858.12 456.18 882.45 438.61 911.34 437.32 C 910.62 461.03 899.48 482.74 887.66 502.75 C 877.31 520.00 857.04 526.72 839.26 533.44 C 839.15 510.55 837.35 487.63 831.49 465.45 Z" fill="#cfa6a6" fill-rule="nonzero" node-id="85" stroke="none" target-height="96.122986" target-width="79.84509" target-x="831.49396" target-y="437.318"></path><path d="M 412.54 444.76 C 449.52 442.49 481.21 466.43 504.10 493.09 C 498.39 501.68 493.46 511.20 485.49 517.92 C 477.87 518.74 470.25 517.56 462.70 516.84 C 443.19 505.99 420.77 495.82 411.97 473.57 C 412.00 481.98 411.86 490.43 412.04 498.87 C 408.19 481.05 408.95 462.54 412.54 444.76 Z" fill="#e79ca4" fill-rule="nonzero" node-id="87" stroke="none" target-height="76.25101" target-width="95.90701" target-x="408.193" target-y="442.493"></path><path d="M 493.89 468.01 C 507.80 451.51 535.29 448.39 551.42 463.41 C 562.71 472.50 571.04 490.50 560.09 503.01 C 558.83 485.43 551.86 465.38 533.42 459.49 C 519.59 453.02 506.26 462.79 493.89 468.01 Z" fill="#c6bdb7" fill-rule="nonzero" node-id="89" stroke="none" target-height="54.61908" target-width="77.149994" target-x="493.895" target-y="448.38596"></path><path d="M 296.91 479.90 C 316.74 471.13 337.87 464.34 359.68 463.12 C 356.77 476.34 346.10 486.01 342.72 498.98 C 341.07 512.06 339.56 526.72 346.82 538.47 C 351.06 545.73 357.20 551.59 362.13 558.38 C 369.89 574.48 376.21 591.51 387.46 605.63 C 404.64 627.77 420.66 651.56 443.66 668.19 C 457.71 678.40 471.37 689.32 483.08 702.22 C 478.01 711.85 473.31 721.63 468.74 731.51 C 459.25 745.27 457.60 762.16 464.07 777.68 C 448.94 776.00 433.24 774.95 419.48 767.80 C 401.40 758.57 385.70 745.45 368.09 735.35 C 363.17 728.27 361.80 719.33 360.62 710.99 C 357.31 682.78 375.64 656.95 369.96 628.99 C 353.00 649.08 346.53 675.27 341.36 700.43 C 337.55 718.54 338.16 737.76 330.94 755.08 C 318.04 759.57 305.10 751.78 293.67 746.49 C 259.28 729.86 234.53 699.82 211.24 670.49 C 201.32 647.03 204.52 619.61 207.61 594.89 C 207.83 603.51 208.40 612.10 208.87 620.73 C 214.58 599.20 219.43 577.10 230.46 557.52 C 243.04 533.69 264.06 515.87 277.29 492.48 C 282.39 486.48 290.04 483.42 296.91 479.90 Z" fill="#f3dcc7" fill-rule="nonzero" node-id="91" stroke="none" target-height="314.56503" target-width="281.75702" target-x="201.322" target-y="463.119"></path><path d="M 370.53 501.71 C 370.50 491.04 366.87 476.02 379.77 471.28 C 380.42 502.93 386.85 534.59 402.05 562.62 C 424.76 604.88 459.54 639.84 499.46 666.04 C 518.37 679.15 539.89 687.56 560.12 698.31 C 532.06 699.46 507.33 684.22 483.48 671.57 C 422.03 637.00 375.67 572.97 370.53 501.71 Z" fill="#99acaf" fill-rule="nonzero" node-id="93" stroke="none" target-height="228.18" target-width="193.25201" target-x="366.86896" target-y="471.276"></path><path d="M 411.97 473.57 C 420.77 495.82 443.19 505.99 462.70 516.84 C 461.34 516.88 458.54 516.91 457.13 516.95 C 464.36 548.57 478.12 579.94 502.12 602.43 C 526.92 625.11 558.14 642.61 592.21 644.94 C 611.15 646.88 630.01 643.18 648.20 638.19 C 648.91 630.17 649.71 622.20 650.53 614.22 C 658.33 608.69 666.13 603.15 674.00 597.69 C 672.02 594.21 670.08 590.72 668.00 587.31 C 682.58 594.31 695.59 604.12 706.70 615.84 C 693.87 616.48 682.91 609.01 671.01 605.63 C 669.65 606.57 666.85 608.47 665.48 609.44 C 668.14 617.67 672.56 625.18 677.01 632.55 C 669.04 632.87 661.06 633.41 653.12 634.06 C 669.93 658.67 700.33 669.16 728.15 675.63 C 727.32 667.15 726.46 658.71 725.56 650.26 C 728.33 651.77 731.13 653.28 733.93 654.79 C 734.83 661.15 736.09 667.44 736.59 673.87 C 732.57 680.63 724.12 681.78 717.08 682.89 C 658.90 688.50 598.97 680.05 545.50 656.05 C 498.85 635.71 459.22 599.81 433.56 555.97 C 423.75 538.11 415.02 519.14 412.04 498.87 C 411.86 490.43 412.00 481.98 411.97 473.57 Z" fill="#ddb4b0" fill-rule="nonzero" node-id="95" stroke="none" target-height="214.92096" target-width="324.73502" target-x="411.858" target-y="473.575"></path><path d="M 207.61 594.89 C 213.90 552.95 240.74 513.89 277.29 492.48 C 264.06 515.87 243.04 533.69 230.46 557.52 C 219.43 577.10 214.58 599.20 208.87 620.73 C 208.40 612.10 207.83 603.51 207.61 594.89 Z" fill="#fbf4e9" fill-rule="nonzero" node-id="97" stroke="none" target-height="128.24799" target-width="69.67601" target-x="207.61" target-y="492.477"></path><path d="M 485.49 517.92 C 493.46 511.20 498.39 501.68 504.10 493.09 C 512.40 500.63 521.24 507.89 531.59 512.42 C 550.17 521.19 571.94 515.83 590.52 524.64 C 608.20 533.55 625.20 544.73 637.92 560.14 C 646.65 570.60 658.54 577.64 668.00 587.31 C 670.08 590.72 672.02 594.21 674.00 597.69 C 666.13 603.15 658.33 608.69 650.53 614.22 C 649.70 622.20 648.91 630.17 648.20 638.19 C 630.01 643.18 611.15 646.88 592.21 644.94 C 558.14 642.61 526.92 625.11 502.12 602.43 C 478.12 579.94 464.36 548.57 457.13 516.95 C 458.54 516.91 461.34 516.88 462.70 516.84 C 470.25 517.56 477.87 518.74 485.49 517.92 Z M 558.43 536.28 C 559.01 551.12 555.13 566.54 559.80 580.95 C 565.58 598.19 594.62 599.92 602.20 583.46 C 606.98 573.69 613.59 565.06 618.95 555.65 C 616.39 545.73 604.61 544.69 596.34 542.75 C 595.09 545.26 592.57 550.26 591.31 552.77 C 593.43 560.75 597.28 568.55 597.02 576.96 C 592.50 588.42 574.14 591.12 568.13 579.58 C 560.34 565.46 564.00 547.71 573.96 535.60 C 568.78 535.71 563.57 535.96 558.43 536.28 Z" fill="#f2ddc9" fill-rule="nonzero" node-id="99" stroke="none" target-height="153.79697" target-width="216.86096" target-x="457.135" target-y="493.08804"></path><path d="M 181.63 521.94 C 184.11 513.50 186.98 505.16 189.86 496.86 C 201.61 509.51 211.78 524.78 211.56 542.71 C 209.44 548.17 206.50 553.28 203.80 558.45 C 193.34 548.53 185.19 535.99 181.63 521.94 Z" fill="#e3c0b3" fill-rule="nonzero" node-id="101" stroke="none" target-height="61.589996" target-width="30.14798" target-x="181.63002" target-y="496.861"></path><path d="M 838.43 542.75 C 848.35 538.47 858.26 534.12 868.29 530.10 C 856.72 547.17 847.81 566.18 833.90 581.63 C 834.40 568.55 836.56 555.68 838.43 542.75 Z" fill="#c89a9e" fill-rule="nonzero" node-id="103" stroke="none" target-height="51.53003" target-width="34.388916" target-x="833.90106" target-y="530.099"></path><path d="M 558.43 536.28 C 563.57 535.96 568.78 535.71 573.96 535.60 C 564.00 547.71 560.34 565.46 568.13 579.58 C 574.13 591.12 592.50 588.42 597.02 576.96 C 597.28 568.55 593.43 560.75 591.31 552.77 C 592.57 550.26 595.09 545.26 596.34 542.75 C 604.61 544.69 616.39 545.73 618.95 555.65 C 613.59 565.06 606.98 573.69 602.20 583.46 C 594.62 599.92 565.58 598.19 559.80 580.95 C 555.13 566.54 559.01 551.12 558.43 536.28 Z" fill="#5c2b52" fill-rule="nonzero" node-id="105" stroke="none" target-height="64.32202" target-width="63.81903" target-x="555.126" target-y="535.597"></path><path d="M 362.13 558.38 C 379.41 561.25 382.11 580.08 389.76 592.73 C 417.61 643.94 466.98 679.48 519.37 702.58 C 501.05 709.52 484.30 719.65 468.74 731.51 C 473.31 721.63 478.01 711.85 483.08 702.22 C 471.37 689.32 457.71 678.40 443.66 668.19 C 420.66 651.56 404.64 627.77 387.46 605.63 C 376.21 591.51 369.89 574.48 362.13 558.38 Z" fill="#cfa1a1" fill-rule="nonzero" node-id="107" stroke="none" target-height="173.12897" target-width="157.246" target-x="362.126" target-y="558.38"></path><path d="M 117.42 616.81 C 124.39 595.53 138.54 573.15 161.94 568.26 C 173.11 565.32 183.39 571.24 192.12 577.50 C 191.84 584.39 191.58 591.29 191.37 598.19 C 178.72 595.68 165.46 594.10 154.36 587.09 C 154.75 588.96 155.54 592.66 155.94 594.49 C 142.53 600.92 130.21 609.30 117.42 616.81 Z" fill="#cca7a6" fill-rule="nonzero" node-id="109" stroke="none" target-height="51.49298" target-width="74.707" target-x="117.416" target-y="565.315"></path><path d="M 662.21 576.67 C 671.37 568.26 684.09 566.11 695.09 572.54 C 684.24 574.76 673.24 576.24 662.21 576.67 Z" fill="#8f7674" fill-rule="nonzero" node-id="111" stroke="none" target-height="10.565002" target-width="32.880005" target-x="662.209" target-y="566.105"></path><path d="M 825.92 617.13 C 829.70 605.42 835.30 592.70 847.52 587.70 C 865.45 592.34 878.78 606.67 890.93 619.83 C 902.11 633.27 914.68 650.23 909.47 668.77 C 903.00 684.83 890.28 698.38 875.08 706.57 C 869.08 711.13 864.41 704.02 859.95 700.89 C 843.35 685.80 824.02 674.23 804.51 663.41 C 813.28 648.79 820.64 633.34 825.92 617.13 Z" fill="#c8819a" fill-rule="nonzero" node-id="113" stroke="none" target-height="123.43201" target-width="110.173035" target-x="804.508" target-y="587.702"></path><path d="M 120.33 637.15 C 131.57 612.46 162.15 598.41 187.92 608.43 C 188.39 629.53 186.41 650.98 191.26 671.75 C 194.28 688.71 201.93 704.23 209.19 719.65 C 174.26 726.01 139.26 711.67 108.68 695.90 C 106.74 675.56 112.56 655.72 120.33 637.15 Z" fill="#f2dcc8" fill-rule="nonzero" node-id="115" stroke="none" target-height="127.60101" target-width="102.44699" target-x="106.744" target-y="598.41"></path><path d="M 665.48 609.44 C 666.85 608.47 669.65 606.57 671.01 605.63 C 682.91 609.01 693.87 616.49 706.70 615.84 C 719.49 625.83 728.08 639.84 733.93 654.79 C 731.13 653.28 728.33 651.77 725.56 650.26 C 726.46 658.71 727.32 667.15 728.15 675.63 C 700.33 669.16 669.93 658.67 653.12 634.06 C 661.06 633.41 669.04 632.87 677.01 632.55 C 672.56 625.18 668.14 617.67 665.48 609.44 Z" fill="#de97a1" fill-rule="nonzero" node-id="117" stroke="none" target-height="69.99902" target-width="80.8161" target-x="653.118" target-y="605.633"></path><path d="M 341.36 700.43 C 346.53 675.27 353.00 649.08 369.96 628.99 C 375.64 656.95 357.31 682.78 360.62 710.99 C 358.75 699.92 356.95 688.82 355.84 677.64 C 347.97 712.89 355.19 752.75 382.64 777.86 C 340.24 771.47 293.92 771.97 257.27 746.71 C 232.80 728.92 214.26 701.00 211.24 670.49 C 234.53 699.82 259.28 729.86 293.67 746.49 C 305.10 751.78 318.04 759.57 330.94 755.08 C 338.16 737.76 337.55 718.54 341.36 700.43 Z" fill="#cda0a1" fill-rule="nonzero" node-id="119" stroke="none" target-height="148.87396" target-width="171.40501" target-x="211.239" target-y="628.989"></path><path d="M 752.69 709.09 C 769.98 700.39 782.37 684.90 796.93 672.54 C 819.60 682.50 839.83 697.26 857.65 714.40 C 812.02 736.50 760.35 738.30 710.65 739.88 C 694.62 739.99 678.70 738.12 662.78 736.72 C 666.88 731.76 671.09 725.76 678.42 726.62 C 704.07 725.72 729.19 719.22 752.69 709.09 Z" fill="#cc889f" fill-rule="nonzero" node-id="121" stroke="none" target-height="67.448" target-width="194.87" target-x="662.784" target-y="672.541"></path><path d="M 840.37 732.91 C 867.57 726.19 891.93 711.71 912.81 693.31 C 900.16 709.80 882.16 721.12 863.19 728.99 C 825.39 745.27 783.88 749.37 743.20 751.52 C 713.20 751.63 682.91 753.14 653.12 748.43 C 654.38 747.43 656.86 745.45 658.11 744.44 C 718.77 751.49 781.19 748.47 840.37 732.91 Z" fill="#c68199" fill-rule="nonzero" node-id="123" stroke="none" target-height="59.83008" target-width="259.69403" target-x="653.118" target-y="693.311"></path><path d="M 108.68 695.90 C 139.26 711.67 174.26 726.01 209.19 719.65 C 217.78 731.33 227.19 742.36 236.57 753.39 C 199.78 748.07 161.97 741.75 128.66 724.36 C 117.13 719.18 111.74 707.43 108.68 695.90 Z" fill="#d4a8a5" fill-rule="nonzero" node-id="125" stroke="none" target-height="57.494995" target-width="127.889" target-x="108.684" target-y="695.898"></path><path d="M 750.53 759.14 C 807.96 755.08 870.41 747.28 915.08 707.33 C 913.75 719.83 914.47 733.59 906.70 744.30 C 894.99 760.87 876.81 771.36 858.59 779.37 C 819.96 796.44 777.70 801.98 736.23 807.87 C 751.15 796.44 747.88 775.56 750.53 759.14 Z" fill="#bf778f" fill-rule="nonzero" node-id="127" stroke="none" target-height="100.54291" target-width="178.84302" target-x="736.233" target-y="707.3251"></path><path d="M 523.47 712.61 C 539.50 710.34 556.17 707.94 572.09 712.21 C 590.49 716.85 609.21 724.47 628.50 720.66 C 637.49 718.86 646.40 721.27 654.91 724.11 C 650.03 729.35 645.82 736.00 638.71 738.44 C 613.12 746.74 588.15 758.06 561.16 761.15 C 545.82 762.91 530.33 763.17 514.92 764.10 C 518.44 767.30 522.03 770.46 525.62 773.62 C 523.72 775.49 521.82 777.33 519.95 779.19 C 504.06 776.39 486.85 776.97 472.48 768.74 C 468.85 761.48 471.15 753.39 472.69 745.95 C 472.95 751.67 473.49 757.35 473.95 763.06 C 485.95 763.10 497.96 763.20 509.96 763.10 C 515.31 744.88 526.06 729.10 539.21 715.63 C 533.96 714.55 528.72 713.47 523.47 712.61 Z" fill="#9b8a9e" fill-rule="nonzero" node-id="129" stroke="none" target-height="71.25696" target-width="186.06598" target-x="468.849" target-y="707.93604"></path><path d="M 472.69 745.95 C 482.94 727.23 503.88 718.11 523.47 712.61 C 528.72 713.47 533.96 714.55 539.21 715.63 C 526.06 729.10 515.31 744.88 509.96 763.10 C 497.96 763.20 485.95 763.10 473.95 763.06 C 473.49 757.35 472.95 751.67 472.69 745.95 Z" fill="#ecddcc" fill-rule="nonzero" node-id="131" stroke="none" target-height="50.59503" target-width="66.51401" target-x="472.694" target-y="712.608"></path><path d="M 368.09 735.35 C 385.70 745.45 401.40 758.57 419.48 767.80 C 433.24 774.95 448.94 776.00 464.07 777.68 C 488.33 788.93 515.10 794.90 541.90 793.13 C 574.32 790.37 605.43 778.58 633.28 762.09 C 639.43 758.82 645.61 753.97 653.01 755.66 C 685.32 760.04 718.01 759.14 750.53 759.14 C 747.88 775.56 751.15 796.44 736.23 807.87 C 697.82 810.02 659.26 813.62 620.78 809.99 C 581.11 810.24 541.87 804.24 502.45 801.11 C 471.98 797.63 439.78 797.45 412.04 782.79 C 392.56 772.80 374.41 757.02 368.09 735.35 Z" fill="#e1a3ac" fill-rule="nonzero" node-id="133" stroke="none" target-height="78.26398" target-width="383.055" target-x="368.091" target-y="735.354"></path><path d="M 561.16 761.15 C 588.15 758.06 613.12 746.74 638.71 738.44 C 605.54 765.00 562.96 782.21 519.95 779.19 C 521.82 777.33 523.72 775.49 525.62 773.62 C 522.03 770.46 518.44 767.30 514.92 764.10 C 530.33 763.17 545.82 762.91 561.16 761.15 Z" fill="#705d75" fill-rule="nonzero" node-id="135" stroke="none" target-height="43.767944" target-width="123.79199" target-x="514.917" target-y="738.44403"></path></svg>